HIERARCHY
ROOT Hips
{
  OFFSET 91.2244 90.026 26.1335
  CHANNELS 6 Xposition Yposition Zposition Zrotation Xrotation Yrotation
  JOINT RightUpLeg
  {
    OFFSET -9.26543 -1.55198 -0.00276407
    CHANNELS 3 Zrotation Xrotation Yrotation
    JOINT RightLeg
    {
      OFFSET 0.00706465 -41.889 0.0798854
      CHANNELS 3 Zrotation Xrotation Yrotation
      JOINT RightFoot
      {
        OFFSET -1.51766 -41.6901 -0.263239
        CHANNELS 3 Zrotation Xrotation Yrotation
        End Site
        {
          OFFSET 0 -7.69 17.5
        }
      }
    }
  }
  JOINT LeftUpLeg
  {
    OFFSET 9.33035 -1.6331 0.002402
    CHANNELS 3 Zrotation Xrotation Yrotation
    JOINT LeftLeg
    {
      OFFSET 0.0774 -41.8788 0.006528
      CHANNELS 3 Zrotation Xrotation Yrotation
      JOINT LeftFoot
      {
        OFFSET 0.406189 -42.2791 -0.67832
        CHANNELS 3 Zrotation Xrotation Yrotation
        End Site
        {
          OFFSET 0 -7.69 17.5
        }
      }
    }
  }
  JOINT Spine
  {
    OFFSET 0.0210118 14.3125 0.030377
    CHANNELS 3 Zrotation Xrotation Yrotation
    JOINT Spine1
    {
      OFFSET -2.02627e-05 9.71981 0.0121962
      CHANNELS 3 Zrotation Xrotation Yrotation
      JOINT Spine2
      {
        OFFSET 0.023812 10.122 0.0180119
        CHANNELS 3 Zrotation Xrotation Yrotation
        JOINT Spine3
        {
          OFFSET 0.00443321 9.71861 0.0143853
          CHANNELS 3 Zrotation Xrotation Yrotation
          JOINT Neck
          {
            OFFSET -0.025003 10.3767 0.0233355
            CHANNELS 3 Zrotation Xrotation Yrotation
            JOINT Head
            {
              OFFSET -0.00975384 9.4764 0.045578
              CHANNELS 3 Zrotation Xrotation Yrotation
              End Site
              {
                OFFSET 0 15.95 0
              }
            }
          }
          JOINT RightShoulder
          {
            OFFSET -3.18407 6.9358 0.0313291
            CHANNELS 3 Zrotation Xrotation Yrotation
            JOINT RightArm
            {
              OFFSET -12.7601 0.0147069 0.0234973
              CHANNELS 3 Zrotation Xrotation Yrotation
              JOINT RightForeArm
              {
                OFFSET -26.4708 -0.032683 0.042111
                CHANNELS 3 Zrotation Xrotation Yrotation
                JOINT RightHand
                {
                  OFFSET -26.0234 -0.0283521 0.00388791
                  CHANNELS 3 Zrotation Xrotation Yrotation
                  JOINT RightHandThumb1
                  {
                    OFFSET -2.48905 0.190105 3.12053
                    CHANNELS 3 Zrotation Xrotation Yrotation
                    JOINT RightHandThumb2
                    {
                      OFFSET -3.68274 0 0
                      CHANNELS 3 Zrotation Xrotation Yrotation
                      JOINT RightHandThumb3
                      {
                        OFFSET -2.55832 0 0
                        CHANNELS 3 Zrotation Xrotation Yrotation
                        End Site
                        {
                          OFFSET -2.194 0 0
                        }
                      }
                    }
                  }
                  JOINT RightInHandIndex
                  {
                    OFFSET -3.22368 0.508421 1.97842
                    CHANNELS 3 Zrotation Xrotation Yrotation
                    JOINT RightHandIndex1
                    {
                      OFFSET -5.21684 -0.091368 0.999158
                      CHANNELS 3 Zrotation Xrotation Yrotation
                      JOINT RightHandIndex2
                      {
                        OFFSET -3.61937 0 0
                        CHANNELS 3 Zrotation Xrotation Yrotation
                        JOINT RightHandIndex3
                        {
                          OFFSET -2.0521 0 0
                          CHANNELS 3 Zrotation Xrotation Yrotation
                          End Site
                          {
                            OFFSET -1.805 0 0
                          }
                        }
                      }
                    }
                  }
                  JOINT RightInHandMiddle
                  {
                    OFFSET -3.38211 0.517263 0.756737
                    CHANNELS 3 Zrotation Xrotation Yrotation
                    JOINT RightHandMiddle1
                    {
                      OFFSET -5.17411 -0.084 0.313895
                      CHANNELS 3 Zrotation Xrotation Yrotation
                      JOINT RightHandMiddle2
                      {
                        OFFSET -3.94947 0 0
                        CHANNELS 3 Zrotation Xrotation Yrotation
                        JOINT RightHandMiddle3
                        {
                          OFFSET -2.47579 0 0
                          CHANNELS 3 Zrotation Xrotation Yrotation
                          End Site
                          {
                            OFFSET -1.975 0 0
                          }
                        }
                      }
                    }
                  }
                  JOINT RightInHandRing
                  {
                    OFFSET -3.36516 0.537895 -0.128947
                    CHANNELS 3 Zrotation Xrotation Yrotation
                    JOINT RightHandRing1
                    {
                      OFFSET -4.63474 -0.022105 -0.478947
                      CHANNELS 3 Zrotation Xrotation Yrotation
                      JOINT RightHandRing2
                      {
                        OFFSET -3.44238 0 0
                        CHANNELS 3 Zrotation Xrotation Yrotation
                        JOINT RightHandRing3
                        {
                          OFFSET -2.3881 0 0
                          CHANNELS 3 Zrotation Xrotation Yrotation
                          End Site
                          {
                            OFFSET -1.857 0 0
                          }
                        }
                      }
                    }
                  }
                  JOINT RightInHandPinky
                  {
                    OFFSET -3.16105 0.469368 -1.20179
                    CHANNELS 3 Zrotation Xrotation Yrotation
                    JOINT RightHandPinky1
                    {
                      OFFSET -4.14105 -0.022105 -1.09053
                      CHANNELS 3 Zrotation Xrotation Yrotation
                      JOINT RightHandPinky2
                      {
                        OFFSET -2.75653 0 0
                        CHANNELS 3 Zrotation Xrotation Yrotation
                        JOINT RightHandPinky3
                        {
                          OFFSET -1.74189 0 0
                          CHANNELS 3 Zrotation Xrotation Yrotation
                          End Site
                          {
                            OFFSET -1.645 0 0
                          }
                        }
                      }
                    }
                  }
                }
              }
            }
          }
          JOINT LeftShoulder
          {
            OFFSET 3.21192 6.92101 0.01407
            CHANNELS 3 Zrotation Xrotation Yrotation
            JOINT LeftArm
            {
              OFFSET 12.7303 -0.00466279 0.011464
              CHANNELS 3 Zrotation Xrotation Yrotation
              JOINT LeftForeArm
              {
                OFFSET 26.497 -0.127446 0.0273404
                CHANNELS 3 Zrotation Xrotation Yrotation
                JOINT LeftHand
                {
                  OFFSET 26.0093 -0.0453415 -0.0774742
                  CHANNELS 3 Zrotation Xrotation Yrotation
                  JOINT LeftHandThumb1
                  {
                    OFFSET 2.48905 0.190105 3.12053
                    CHANNELS 3 Zrotation Xrotation Yrotation
                    JOINT LeftHandThumb2
                    {
                      OFFSET 3.68274 0 0
                      CHANNELS 3 Zrotation Xrotation Yrotation
                      JOINT LeftHandThumb3
                      {
                        OFFSET 2.55832 0 0
                        CHANNELS 3 Zrotation Xrotation Yrotation
                        End Site
                        {
                          OFFSET 2.194 0 0
                        }
                      }
                    }
                  }
                  JOINT LeftInHandIndex
                  {
                    OFFSET 3.22368 0.508421 1.97842
                    CHANNELS 3 Zrotation Xrotation Yrotation
                    JOINT LeftHandIndex1
                    {
                      OFFSET 5.21684 -0.091368 0.999158
                      CHANNELS 3 Zrotation Xrotation Yrotation
                      JOINT LeftHandIndex2
                      {
                        OFFSET 3.61937 0 0
                        CHANNELS 3 Zrotation Xrotation Yrotation
                        JOINT LeftHandIndex3
                        {
                          OFFSET 2.0521 0 0
                          CHANNELS 3 Zrotation Xrotation Yrotation
                          End Site
                          {
                            OFFSET 1.805 0 0
                          }
                        }
                      }
                    }
                  }
                  JOINT LeftInHandMiddle
                  {
                    OFFSET 3.38211 0.517263 0.756737
                    CHANNELS 3 Zrotation Xrotation Yrotation
                    JOINT LeftHandMiddle1
                    {
                      OFFSET 5.17411 -0.084 0.313895
                      CHANNELS 3 Zrotation Xrotation Yrotation
                      JOINT LeftHandMiddle2
                      {
                        OFFSET 3.94947 0 0
                        CHANNELS 3 Zrotation Xrotation Yrotation
                        JOINT LeftHandMiddle3
                        {
                          OFFSET 2.47579 0 0
                          CHANNELS 3 Zrotation Xrotation Yrotation
                          End Site
                          {
                            OFFSET 1.975 0 0
                          }
                        }
                      }
                    }
                  }
                  JOINT LeftInHandRing
                  {
                    OFFSET 3.36516 0.537895 -0.128947
                    CHANNELS 3 Zrotation Xrotation Yrotation
                    JOINT LeftHandRing1
                    {
                      OFFSET 4.63474 -0.022105 -0.478947
                      CHANNELS 3 Zrotation Xrotation Yrotation
                      JOINT LeftHandRing2
                      {
                        OFFSET 3.44238 0 0
                        CHANNELS 3 Zrotation Xrotation Yrotation
                        JOINT LeftHandRing3
                        {
                          OFFSET 2.3881 0 0
                          CHANNELS 3 Zrotation Xrotation Yrotation
                          End Site
                          {
                            OFFSET 1.857 0 0
                          }
                        }
                      }
                    }
                  }
                  JOINT LeftInHandPinky
                  {
                    OFFSET 3.16105 0.469368 -1.20179
                    CHANNELS 3 Zrotation Xrotation Yrotation
                    JOINT LeftHandPinky1
                    {
                      OFFSET 4.14105 -0.022105 -1.09053
                      CHANNELS 3 Zrotation Xrotation Yrotation
                      JOINT LeftHandPinky2
                      {
                        OFFSET 2.75653 0 0
                        CHANNELS 3 Zrotation Xrotation Yrotation
                        JOINT LeftHandPinky3
                        {
                          OFFSET 1.74189 0 0
                          CHANNELS 3 Zrotation Xrotation Yrotation
                          End Site
                          {
                            OFFSET 1.645 0 0
                          }
                        }
                      }
                    }
                  }
                }
              }
            }
          }
        }
      }
    }
  }
}
MOTION
Frames: 3
Frame Time: 0.00833333
8.470215913996970585e+02 8.988118290452912618e+01 2.107260957742226992e+01 2.194159429051905619e+01 -2.376324721713721289e+01 -1.757293858149321863e+02 2.625179925415629612e+01 -4.722667639189566557e+01 2.593480253018590531e+01 4.117984838837536188e-01 1.244221586834349225e+01 1.563953194981355033e+01 9.410120391398693940e+00 7.336428181014508887e+00 4.833071250479719083e+00 4.922451103407556872e+01 -2.377977053134591401e+01 5.852631020944915718e+01 -1.860007190999013460e-01 2.619324323999982695e+01 -1.949047609390717994e+01 -1.084712299308579908e+01 -1.052443392112279064e+01 4.010414418951293669e+01 7.115976347367142241e-01 5.115864492946956332e+00 -1.671688615962169422e+01 2.575826512256684797e-03 1.283988124969879463e+00 -4.271580705123253274e+00 6.563724012039301448e-02 2.150669501432320718e+00 -7.044601381547946239e+00 -2.669302430767053758e-01 6.750700052589589939e-01 2.090442230629786735e+00 -3.885579369754050272e-01 6.721726166479697895e-01 4.298557527779997223e+00 -8.056933617622808796e+00 1.176186230707373959e+01 4.031700515013834973e+01 -1.678280016631945593e+00 -1.219912712168951607e+01 6.114519454982041413e-01 6.004919213058764882e+01 -3.905971232019438588e+01 2.990046211607033655e+00 5.970901964771493198e+01 -2.546958822820681689e+01 1.092369860877691394e+02 -3.090703217292554683e+01 1.036157451562179865e+00 5.885200870528912276e+00 2.818400000000000105e+01 1.072940000000000005e+01 1.915919999999999845e+01 2.173304866355510683e-15 -1.348415797303695411e-15 -1.000000000000000000e+01 -7.027516442931856876e-16 -2.247514317753278113e-15 -1.000000000000000000e+01 1.635565198812256259e-16 2.509000421803075970e-16 3.190342246176564030e-15 1.998179999999999978e+01 8.718970000000000331e-01 2.396399999999999864e+00 2.400000000000000000e+01 7.483383032669459131e-16 -6.660636149159721928e-15 2.000000000000000000e+01 -6.856008683989631876e-16 -8.892103986896616804e-15 1.635565198812256259e-16 2.509000421803075970e-16 3.190342246176564030e-15 2.000000000000000000e+01 -6.094030340919783498e-16 7.240374145267440999e-16 2.400000000000000000e+01 2.708629946930411865e-16 1.048259278025716560e-16 2.000000000000000000e+01 -3.153083997253484538e-15 -1.212575060513273389e-14 1.635565198812256259e-16 2.509000421803075970e-16 3.190342246176564030e-15 1.997479999999999833e+01 -1.025649999999999951e+00 -2.819380000000000219e+00 2.400000000000000000e+01 -5.743379626687613610e-16 -1.010293498885749685e-14 2.000000000000000000e+01 -8.262405594834330624e-16 -1.179467435339069972e-14 1.635565198812256259e-16 2.509000421803075970e-16 3.190342246176564030e-15 1.978150000000000119e+01 -3.009479999999999933e+00 -8.305149999999999366e+00 2.400000000000000000e+01 -5.039224662000097481e-15 -1.176936656815156046e-14 2.000000000000000000e+01 -1.641190061641447118e-15 -5.515594755442210267e-15 3.967486230252864399e+00 -1.768985534292427175e+01 -1.481936458270511281e+01 2.252225236602661607e+00 4.351429942166215170e+01 -1.293186693252062582e+02 4.897641625832635270e+01 -8.547046480607328078e+00 5.130860023631827360e+00 4.158723564075587831e+01 3.149243290115757432e-01 3.696009088216720784e+01 -2.818400000000000105e+01 1.072940000000000005e+01 -1.915919999999999845e+01 1.817575636808161334e-15 -1.021422136152046895e-15 1.000000000000000000e+01 6.136032138845335661e-15 1.047710361830854015e-16 1.000000000000000000e+01 -2.256903773881375280e-15 -1.258588220818797320e-15 1.298896320118344653e-15 -1.998179999999999978e+01 8.718970000000000331e-01 -2.396399999999999864e+00 -2.400000000000000000e+01 -2.956416220047443196e-15 1.595230749912305363e-14 -2.000000000000000000e+01 -1.574550708567129605e-15 1.389638195414635315e-14 -2.256903773881375280e-15 -1.258588220818797320e-15 1.298896320118344653e-15 -2.000000000000000000e+01 -1.146217507443998539e-15 1.998366887518790052e-14 -2.400000000000000000e+01 -2.207748411725063595e-15 1.663600242777093871e-14 -2.000000000000000000e+01 -4.552127250236299121e-15 6.409975645314127643e-15 -2.256903773881375280e-15 -1.258588220818797320e-15 1.298896320118344653e-15 -1.997479999999999833e+01 -1.025649999999999951e+00 2.819380000000000219e+00 -2.400000000000000000e+01 -5.319661134172546381e-15 2.032047149448984677e-14 -2.000000000000000000e+01 -2.776285163682575545e-15 9.119674382747676823e-15 -2.256903773881375280e-15 -1.258588220818797320e-15 1.298896320118344653e-15 -1.978150000000000119e+01 -3.009479999999999933e+00 8.305149999999999366e+00 -2.400000000000000000e+01 -1.211514033350893280e-15 8.224162230024238837e-15 -2.000000000000000000e+01 4.748728510880873274e-16 3.528300059337467035e-15
8.470483518103796996e+02 8.988889623367869319e+01 2.110173125605278344e+01 2.205091831728963925e+01 -2.371430283520855298e+01 -1.754749447054323639e+02 2.610922425141334102e+01 -4.734628291725709204e+01 2.579512126306606490e+01 4.404382720337902679e-01 1.248923851543236552e+01 1.553594598154298367e+01 9.392523556955735486e+00 7.271501845062041447e+00 4.741544318474915976e+00 4.933973232472895631e+01 -2.405898848451513317e+01 5.860066236360820824e+01 -1.116841474224290476e-01 2.620102506122579200e+01 -1.958275033305084634e+01 -1.082537572514167934e+01 -1.043757970417661340e+01 4.003891135978573601e+01 7.954377600594522146e-01 5.171270160057773069e+00 -1.661421239999744870e+01 2.323414288587066778e-02 1.305149865739604564e+00 -4.241748135139844500e+00 9.936867213615491190e-02 2.183750703496116774e+00 -6.994903382286238092e+00 -2.637080136152455401e-01 6.784372136240235385e-01 2.075439869119529490e+00 -3.978201593384687040e-01 6.995205221481216595e-01 4.357318109521414407e+00 -7.959884584568939658e+00 1.174997239231745816e+01 3.995964982478337646e+01 -1.757026118952794480e+00 -1.220450330952692752e+01 5.816991204047932129e-01 6.080294059502350024e+01 -3.834300895061614511e+01 3.133019635148946769e+00 5.899374886193818668e+01 -2.589288328487493018e+01 1.085898459157912157e+02 -3.082626573208082732e+01 5.248583038131400258e-01 5.852322860920332381e+00 2.818400000000000105e+01 1.072940000000000005e+01 1.915919999999999845e+01 2.261757421031665159e-15 -1.198126402159694934e-15 -1.000000000000000000e+01 -9.268554896078227915e-16 -2.103601788285950973e-15 -1.000000000000000000e+01 3.543168192613193134e-16 3.479504790216503431e-16 3.217767212927653657e-15 1.998179999999999978e+01 8.718970000000000331e-01 2.396399999999999864e+00 2.400000000000000000e+01 6.562859809012931035e-16 -6.611428804755218481e-15 2.000000000000000000e+01 -8.127909635183281812e-16 -8.605395745931394407e-15 3.543168192613193134e-16 3.479504790216503431e-16 3.217767212927653657e-15 2.000000000000000000e+01 -5.756030786581173896e-16 6.853422998649763879e-16 2.400000000000000000e+01 1.981186989637605882e-16 -6.520460887952200010e-17 2.000000000000000000e+01 -3.133829352884012363e-15 -1.175744588814865797e-14 3.543168192613193134e-16 3.479504790216503431e-16 3.217767212927653657e-15 1.997479999999999833e+01 -1.025649999999999951e+00 -2.819380000000000219e+00 2.400000000000000000e+01 -6.405761003061543141e-16 -1.020487220031612191e-14 2.000000000000000000e+01 -7.279668446227020780e-16 -1.172524965405195824e-14 3.543168192613193134e-16 3.479504790216503431e-16 3.217767212927653657e-15 1.978150000000000119e+01 -3.009479999999999933e+00 -8.305149999999999366e+00 2.400000000000000000e+01 -4.954582689468936123e-15 -1.192288579549252366e-14 2.000000000000000000e+01 -1.611918641455635152e-15 -5.188229100758285901e-15 3.949966273426281482e+00 -1.755079093210958519e+01 -1.489989734960631829e+01 1.892185802066017386e+00 4.367337316606803910e+01 -1.286048506816894701e+02 4.899802270873605892e+01 -9.124290436963450546e+00 5.688341201843117645e+00 4.135106546940659200e+01 -6.566628148507023255e-01 3.676717381384679584e+01 -2.818400000000000105e+01 1.072940000000000005e+01 -1.915919999999999845e+01 2.101258826297729797e-15 -1.169663556723723309e-15 1.000000000000000000e+01 6.368501533090517771e-15 1.385939058211901377e-16 1.000000000000000000e+01 -2.281777499122920612e-15 -1.294613077619374165e-15 1.345394826571275314e-15 -1.998179999999999978e+01 8.718970000000000331e-01 -2.396399999999999864e+00 -2.400000000000000000e+01 -3.014786894749184035e-15 1.640426767888820453e-14 -2.000000000000000000e+01 -1.632292463015492099e-15 1.431095912126524009e-14 -2.281777499122920612e-15 -1.294613077619374165e-15 1.345394826571275314e-15 -2.000000000000000000e+01 -1.159594567931440198e-15 2.072483468488252471e-14 -2.400000000000000000e+01 -2.287910065533741439e-15 1.718768233074029196e-14 -2.000000000000000000e+01 -4.689214141255853516e-15 6.653152594480613953e-15 -2.281777499122920612e-15 -1.294613077619374165e-15 1.345394826571275314e-15 -1.997479999999999833e+01 -1.025649999999999951e+00 2.819380000000000219e+00 -2.400000000000000000e+01 -5.503094457320402046e-15 2.107147334801344649e-14 -2.000000000000000000e+01 -2.846470905014458755e-15 9.567020869285417096e-15 -2.281777499122920612e-15 -1.294613077619374165e-15 1.345394826571275314e-15 -1.978150000000000119e+01 -3.009479999999999933e+00 8.305149999999999366e+00 -2.400000000000000000e+01 -1.175295076320790688e-15 8.650362735829641772e-15 -2.000000000000000000e+01 4.216617545241451115e-16 3.689457139792838346e-15
8.470750639127224986e+02 8.989686604635070921e+01 2.113237616804063634e+01 2.216028563719365607e+01 -2.366355432476213139e+01 -1.752028816061431087e+02 2.594806754355666811e+01 -4.746906521073954366e+01 2.563842028336665990e+01 4.709966925934616633e-01 1.254003894979908296e+01 1.542726586715413362e+01 9.374071333814958606e+00 7.204044786060953776e+00 4.645807964905498189e+00 4.944492498468606101e+01 -2.435068567882361634e+01 5.866717876158602962e+01 -3.596535384306953631e-02 2.620581210438269082e+01 -1.968001327401914224e+01 -1.080209034192150419e+01 -1.034548538233404180e+01 3.997001293028861113e+01 8.799954216530593287e-01 5.230448830860418674e+00 -1.649975390795301422e+01 4.420570432914272541e-02 1.327338005709773006e+00 -4.208805640086905164e+00 1.335714996476284888e-01 2.218301427731076192e+00 -6.940072684638849410e+00 -2.601020751665468200e-01 6.814272112691099892e-01 2.059018738785074021e+00 -4.064629698071692832e-01 7.266250429091245522e-01 4.413359656221144789e+00 -7.853695454154855149e+00 1.173164634567198128e+01 3.957464283763049906e+01 -1.836718894209309338e+00 -1.220671021446628757e+01 5.552553598866178941e-01 6.156847884289856410e+01 -3.760876371214553870e+01 3.309619309467418447e+00 5.825915913106538824e+01 -2.630892132687780460e+01 1.078928500402914068e+02 -3.073845612216067735e+01 -6.251791260361017066e-04 5.817375717606001473e+00 2.818400000000000105e+01 1.072940000000000005e+01 1.915919999999999845e+01 2.349262766685097743e-15 -1.047691737180315650e-15 -1.000000000000000000e+01 -1.156643943215560617e-15 -1.956981376883369370e-15 -1.000000000000000000e+01 5.454823716465223223e-16 4.455881730096216402e-16 3.240225808021281419e-15 1.998179999999999978e+01 8.718970000000000331e-01 2.396399999999999864e+00 2.400000000000000000e+01 5.575333423364210130e-16 -6.558203030497257878e-15 2.000000000000000000e+01 -9.477892667881300438e-16 -8.310274420334687683e-15 5.454823716465223223e-16 4.455881730096216402e-16 3.240225808021281419e-15 2.000000000000000000e+01 -5.432279337660297828e-16 6.425384572070678091e-16 2.400000000000000000e+01 1.184734678077339954e-16 -2.381712323746230406e-16 2.000000000000000000e+01 -3.111483598285388703e-15 -1.137689678962871445e-14 5.454823716465223223e-16 4.455881730096216402e-16 3.240225808021281419e-15 1.997479999999999833e+01 -1.025649999999999951e+00 -2.819380000000000219e+00 2.400000000000000000e+01 -7.102219590303711980e-16 -1.029533271844585754e-14 2.000000000000000000e+01 -6.309852769809232985e-16 -1.164836196133721494e-14 5.454823716465223223e-16 4.455881730096216402e-16 3.240225808021281419e-15 1.978150000000000119e+01 -3.009479999999999933e+00 -8.305149999999999366e+00 2.400000000000000000e+01 -4.873185808985657972e-15 -1.207070366024792047e-14 2.000000000000000000e+01 -1.580330429402799267e-15 -4.856200953748755503e-15 3.927961544657585513e+00 -1.741036662351730158e+01 -1.498180737175828092e+01 1.510455691836420034e+00 4.382712615367000808e+01 -1.278631223200522982e+02 4.897155740184528838e+01 -9.725594993885195549e+00 6.220317805221057483e+00 4.110402132344479753e+01 -1.663086892269339145e+00 3.655678035097925971e+01 -2.818400000000000105e+01 1.072940000000000005e+01 -1.915919999999999845e+01 2.389024402888577018e-15 -1.313820418815229963e-15 1.000000000000000000e+01 6.605040972928415331e-15 1.739665859709499390e-16 1.000000000000000000e+01 -2.303540786033275072e-15 -1.329617602286089653e-15 1.391733138577195545e-15 -1.998179999999999978e+01 8.718970000000000331e-01 -2.396399999999999864e+00 -2.400000000000000000e+01 -3.072634733813422574e-15 1.684767289393266386e-14 -2.000000000000000000e+01 -1.685785192026088265e-15 1.471733196427098140e-14 -2.303540786033275072e-15 -1.329617602286089653e-15 1.391733138577195545e-15 -2.000000000000000000e+01 -1.174794432476114964e-15 2.146426447879876029e-14 -2.400000000000000000e+01 -2.371503196319872167e-15 1.773850832187518143e-14 -2.000000000000000000e+01 -4.820576222526688169e-15 6.896336362600439174e-15 -2.303540786033275072e-15 -1.329617602286089653e-15 1.391733138577195545e-15 -1.997479999999999833e+01 -1.025649999999999951e+00 2.819380000000000219e+00 -2.400000000000000000e+01 -5.681033498569513654e-15 2.181145355601278855e-14 -2.000000000000000000e+01 -2.915625244020639911e-15 1.001022664378246653e-14 -2.303540786033275072e-15 -1.329617602286089653e-15 1.391733138577195545e-15 -1.978150000000000119e+01 -3.009479999999999933e+00 8.305149999999999366e+00 -2.400000000000000000e+01 -1.139908901531213549e-15 9.069244334966619188e-15 -2.000000000000000000e+01 3.656077634793960055e-16 3.846701532378229941e-15
